<svg width="42" height="34" viewBox="0 0 42 34" fill="none" xmlns="http://www.w3.org/2000/svg">
<path fill-rule="evenodd" clip-rule="evenodd" d="M3.29123 14.6639C14.3049 9.8808 21.6369 6.70261 25.3186 5.16069C35.7973 0.78669 38 0.031468 39.4161 0C39.7307 0 40.423 0.062936 40.8951 0.440547C41.2727 0.75522 41.3671 1.1643 41.43 1.47898C41.4929 1.79366 41.5559 2.45448 41.4929 2.95796C40.9265 8.93681 38.472 23.4434 37.2133 30.1145C36.6784 32.9466 35.64 33.8906 34.633 33.9851C32.4303 34.1739 30.7625 32.5375 28.6541 31.153C25.3186 28.9817 23.462 27.6286 20.2208 25.4888C16.4762 23.0343 18.8992 21.6812 21.039 19.4785C21.6054 18.9121 31.266 10.1011 31.4548 9.31442C31.4862 9.22002 31.4862 8.84241 31.266 8.6536C31.0457 8.4648 30.731 8.52773 30.4793 8.59067C30.1331 8.6536 24.8466 12.178 14.5566 19.1323C13.0462 20.1708 11.6931 20.6742 10.4659 20.6428C9.11274 20.6113 6.5324 19.8875 4.58141 19.2582C2.22133 18.503 0.333276 18.0939 0.490614 16.7723C0.585017 16.08 1.52905 15.3877 3.29123 14.6639Z" fill="white"/>
</svg>
