<svg width="38" height="45" viewBox="0 0 38 45" fill="none" xmlns="http://www.w3.org/2000/svg">
<path d="M2.76124 14.7002C1.99583 14.7002 1.3464 14.9664 0.812559 15.4987C0.278719 16.031 0.0117188 16.6698 0.0117188 17.4154V28.8625C0.0117188 29.6267 0.278639 30.2737 0.812559 30.8061C1.3464 31.3385 1.99583 31.6047 2.76124 31.6047C3.5261 31.6047 4.17159 31.3386 4.69716 30.8061C5.22168 30.2738 5.48466 29.6267 5.48466 28.8625V17.4154C5.48466 16.6697 5.21774 16.031 4.68382 15.4987C4.1499 14.9664 3.50891 14.7002 2.76124 14.7002Z" fill="white"/>
<path d="M24.8665 4.42331L26.762 0.93649C26.8864 0.70564 26.8422 0.52863 26.6288 0.404154C26.3973 0.296822 26.2193 0.351209 26.095 0.56347L24.173 4.07817C22.4817 3.33254 20.693 2.95904 18.8067 2.95904C16.92 2.95904 15.1311 3.33262 13.4405 4.07817L11.5184 0.56347C11.3935 0.351209 11.2156 0.297303 10.9846 0.404154C10.7707 0.52919 10.7265 0.70564 10.8514 0.93649L12.747 4.42331C10.8249 5.40075 9.2941 6.76201 8.155 8.51007C7.016 10.2591 6.44629 12.1704 6.44629 14.2473H31.1403C31.1403 12.1709 30.5705 10.2595 29.4315 8.51007C28.2924 6.76201 26.7704 5.40075 24.8665 4.42331ZM13.9075 9.49496C13.7025 9.6998 13.4577 9.8018 13.1731 9.8018C12.888 9.8018 12.6481 9.6998 12.4524 9.49496C12.2568 9.29103 12.1589 9.04785 12.1589 8.7631C12.1589 8.47932 12.2568 8.23566 12.4524 8.03125C12.6481 7.82732 12.8885 7.72535 13.1731 7.72535C13.4577 7.72535 13.7025 7.82732 13.9075 8.03125C14.112 8.23614 14.2148 8.47932 14.2148 8.7631C14.2142 9.04737 14.1115 9.29103 13.9075 9.49496ZM25.1599 9.49496C24.9639 9.6998 24.7234 9.8018 24.4393 9.8018C24.1541 9.8018 23.9094 9.6998 23.7048 9.49496C23.4999 9.29103 23.3976 9.04785 23.3976 8.7631C23.3976 8.47932 23.4999 8.23566 23.7048 8.03125C23.9094 7.82732 24.1541 7.72535 24.4393 7.72535C24.7239 7.72535 24.9638 7.82732 25.1599 8.03125C25.3558 8.23614 25.4534 8.47932 25.4534 8.7631C25.4534 9.04737 25.3557 9.29103 25.1599 9.49496Z" fill="white"/>
<path d="M6.55371 32.9341C6.55371 33.7513 6.83831 34.443 7.40761 35.0107C7.97731 35.5783 8.67101 35.8621 9.48991 35.8621H11.4656L11.4927 41.9058C11.4927 42.669 11.7596 43.3171 12.2934 43.8495C12.8273 44.3819 13.4683 44.6481 14.2155 44.6481C14.9804 44.6481 15.6303 44.3819 16.1642 43.8495C16.6981 43.3171 16.965 42.6691 16.965 41.9058V35.8627H20.6491V41.9058C20.6491 42.669 20.9159 43.3171 21.4498 43.8495C21.9837 44.3819 22.633 44.6481 23.3985 44.6481C24.1634 44.6481 24.8133 44.3819 25.3472 43.8495C25.8811 43.3171 26.148 42.6691 26.148 41.9058V35.8627H28.1503C28.9511 35.8627 29.6358 35.5788 30.2061 35.0111C30.7753 34.4435 31.0601 33.7518 31.0601 32.9347V15.2041H6.55371V32.9341Z" fill="white"/>
<path d="M34.8518 14.7002C34.1041 14.7002 33.4636 14.9624 32.9297 15.4855C32.3958 16.0095 32.1289 16.6531 32.1289 17.4154V28.8625C32.1289 29.6267 32.3957 30.2737 32.9297 30.8061C33.4636 31.3386 34.1046 31.6047 34.8518 31.6047C35.6168 31.6047 36.2666 31.3386 36.8005 30.8061C37.3344 30.2737 37.6013 29.6267 37.6013 28.8625V17.4154C37.6013 16.6531 37.3344 16.0095 36.8005 15.4855C36.2666 14.9624 35.6168 14.7002 34.8518 14.7002Z" fill="white"/>
</svg>
