<svg width="46" height="48" viewBox="0 0 46 48" fill="none" xmlns="http://www.w3.org/2000/svg">
<path fill-rule="evenodd" clip-rule="evenodd" d="M39.2147 7.68503C34.9111 3.37645 29.188 1.00263 23.0905 1C10.5266 1 0.301045 11.2249 0.296001 23.7928C0.294465 27.8101 1.34387 31.7314 3.33872 35.1884L0.10498 47L12.1886 43.8303C15.5179 45.6462 19.2664 46.6035 23.0813 46.6048H23.0907C35.6533 46.6048 45.8797 36.3786 45.885 23.8105C45.8872 17.7203 43.5182 11.9934 39.2147 7.68503ZM23.0907 42.7552H23.083C19.6835 42.7539 16.3491 41.8405 13.4404 40.1143L12.7485 39.704L5.57789 41.5848L7.49181 34.5936L7.04135 33.8764C5.14497 30.8603 4.14315 27.3739 4.14469 23.7938C4.14886 13.3481 12.6478 4.84978 23.0984 4.84978C28.1585 4.85154 32.9156 6.82468 36.4926 10.406C40.0695 13.9871 42.0381 18.7471 42.0361 23.8094C42.0319 34.2561 33.533 42.7552 23.0907 42.7552ZM33.4828 28.5656C32.9132 28.2807 30.1133 26.9028 29.5911 26.7127C29.0691 26.523 28.6893 26.4278 28.3097 26.998C27.93 27.5682 26.8383 28.8509 26.506 29.2312C26.1738 29.6111 25.8415 29.6589 25.2722 29.3736C24.7024 29.0887 22.8675 28.4871 20.6919 26.5466C18.9988 25.0365 17.8558 23.1714 17.5235 22.601C17.1913 22.0308 17.488 21.7227 17.7733 21.4387C18.0295 21.1834 18.3429 20.7733 18.6277 20.4408C18.9126 20.1083 19.0074 19.8706 19.1973 19.4905C19.3872 19.1105 19.2922 18.7778 19.1497 18.4929C19.0074 18.2076 17.8683 15.4041 17.3937 14.2637C16.9314 13.1533 16.4618 13.3036 16.1122 13.286C15.7804 13.2696 15.4004 13.2658 15.0205 13.2658C14.6409 13.2658 14.024 13.4084 13.5018 13.9786C12.9798 14.5488 11.5085 15.9267 11.5085 18.7302C11.5085 21.5336 13.5492 24.2417 13.834 24.622C14.1187 25.002 17.8503 30.7548 23.5635 33.222C24.9222 33.8089 25.9832 34.1591 26.8104 34.4219C28.175 34.8554 29.4165 34.794 30.3977 34.6475C31.4921 34.4839 33.7674 33.2696 34.242 31.9393C34.7166 30.6087 34.7166 29.4683 34.5743 29.2308C34.4319 28.9935 34.0523 28.8509 33.4828 28.5656Z" fill="white"/>
</svg>
